<?xml version="1.0" encoding="UTF-8" standalone="no"?><!DOCTYPE svg PUBLIC "-//W3C//DTD SVG 1.1//EN" "http://www.w3.org/Graphics/SVG/1.1/DTD/svg11.dtd"><svg width="100%" height="100%" viewBox="0 0 802 375" version="1.1" xmlns="http://www.w3.org/2000/svg" xmlns:xlink="http://www.w3.org/1999/xlink" xml:space="preserve" xmlns:serif="http://www.serif.com/" style="fill-rule:evenodd;clip-rule:evenodd;stroke-linejoin:round;stroke-miterlimit:2;"><rect id="BG" x="16.313" y="10.63" width="244.488" height="155.906" style="fill:#fff;"/><path id="Frame" d="M260.801,166.535l-255.118,0l0,10.63l265.748,0l0,-177.165l-265.748,-0l-0,166.535l10.63,0l0,-155.906l244.488,0l0,155.906Z"/><path d="M138.557,88.583l-122.244,77.953l0,-155.906l122.244,77.953Z" style="fill:#b20000;"/><path d="M138.557,88.583l122.244,-77.953l0,155.906l-122.244,-77.953Z" style="fill:#b20000;"/><circle cx="138.557" cy="88.583" r="35.433" style="fill:#b20000;"/><path d="M44.35,374.085c27.946,0 42.932,-14.581 42.932,-41.92c0,-19.036 -8.91,-32.199 -25.921,-38.275l-21.061,-7.695c-9.113,-3.24 -13.973,-10.328 -13.973,-19.846c0,-10.936 6.278,-17.011 17.416,-17.011c10.936,0 17.213,6.48 17.213,17.618l0,1.823l24.301,0l0,-1.823c0,-24.909 -14.783,-38.68 -41.515,-38.68c-27.136,0 -41.717,13.568 -41.717,38.68c0,19.644 8.505,32.807 25.314,39.085l20.859,7.493c9.923,3.645 14.783,10.328 14.783,20.656c0,12.151 -6.683,18.631 -19.036,18.631c-12.556,0 -19.644,-6.885 -19.644,-19.644l0,-2.835l-24.301,0l-0,3.24c0,26.529 15.391,40.502 44.35,40.502Z" style="fill:#fff;fill-rule:nonzero;"/><path d="M151.073,374.085c26.529,0 41.312,-15.796 45.565,-48.4l-24.301,0c-2.835,18.834 -9.518,27.136 -21.264,27.136c-16.201,0 -23.289,-15.796 -23.289,-51.843c0,-35.844 7.29,-51.64 23.289,-51.64c11.746,0 18.428,8.505 21.264,27.136l24.301,0c-4.253,-32.604 -19.036,-48.4 -45.565,-48.4c-32.402,0 -47.59,23.289 -47.59,72.904c0,49.818 15.188,73.106 47.59,73.106Z" style="fill:#fff;fill-rule:nonzero;"/><path d="M217.699,372.06l24.301,0l0,-60.551l36.654,0l0,60.551l24.301,0l0,-141.758l-24.301,0l0,60.146l-36.654,0l0,-60.146l-24.301,0l0,141.758Z" style="fill:#fff;fill-rule:nonzero;"/><rect x="326.853" y="230.302" width="24.301" height="141.758" style="fill:#fff;fill-rule:nonzero;"/><path d="M375.05,372.06l24.301,0l0,-92.547l24.909,92.547l13.366,0l24.909,-92.547l0,92.547l24.301,0l0,-141.758l-33.414,0l-22.479,90.725l-22.479,-90.725l-33.414,0l0,141.758Z" style="fill:#fff;fill-rule:nonzero;"/><path d="M553.26,374.085c27.541,0 42.73,-14.176 42.73,-40.097l0,-104.698l-24.301,0l0,104.698c0,12.556 -6.278,18.834 -18.428,18.834c-11.948,0 -18.226,-6.075 -18.226,-18.834l0,-104.698l-24.301,0l0,104.698c0,25.921 15.188,40.097 42.527,40.097Z" style="fill:#fff;fill-rule:nonzero;"/><path d="M619.886,372.06l43.337,0c29.364,0 46.78,-26.124 46.78,-70.879c0,-45.97 -16.403,-70.879 -46.78,-70.879l-43.337,0l0,141.758Zm24.301,-20.454l0,-100.85l15.796,0c17.213,0 25.719,16.606 25.719,50.425c0,33.212 -8.708,50.425 -25.719,50.425l-15.796,0Z" style="fill:#fff;fill-rule:nonzero;"/><path d="M746.86,372.06l24.301,0l0,-120.696l30.377,0l0,-21.061l-85.257,0l0,21.061l30.579,0l0,120.696Z" style="fill:#fff;fill-rule:nonzero;"/></svg>